# xmcd
#
# Track frame offsets:
#	150
#	32898
#	50635
#	64855
#	81471
#	94171
#	109208
#	125781
#	143436
#	173506
#	194995
#
# Disc length: 2850 seconds
#
# Revision: 0
# Processed by: cddbd v1.5.1PL2 Copyright (c) Steve Scherf et al.
# Submitted via: audiograbber 1.83.01
#
DISCID=a50b200b
DTITLE=Nena - Nena
DYEAR=1900
DGENRE=
TTITLE0=Irgendwie irgendwo irgendwann
TTITLE1=99 Red Balloons
TTITLE2=Leuchtturm
TTITLE3=Nur geträumt
TTITLE4=Sandmännchen
TTITLE5=Tanz auf dem Vulkan
TTITLE6=Wunder Geschehn
TTITLE7=99 Luft Balloons
TTITLE8=Dream (MegaMix)
TTITLE9=Haus der drei Sonnen
TTITLE10=Irgendwo Irgendwie Irgendwann
EXTD=
EXTT0=
EXTT1=
EXTT2=
EXTT3=
EXTT4=
EXTT5=
EXTT6=
EXTT7=
EXTT8=
EXTT9=
EXTT10=
PLAYORDER=
